#N canvas 292 163 450 300 10;
#X obj 57 107 hid;
#X msg 55 42 print;
#X msg 55 66 open 5;
#X msg 125 68 close;
#X floatatom 57 242 5 0 0 0 - - -;
#X obj 57 167 route abs_x;
#X msg 124 44 poll 500;
#X obj 57 138 route abs;
#X text 80 12 Control;
#X text 126 137 Messages routing;
#X text 24 196 First analog Pin;
#X obj 318 149 vu 15 120 empty empty -1 -8 0 10 -66577 -1 1 0;
#X obj 141 196 scale 0 1016 -99 12 0;
#X connect 0 0 7 0;
#X connect 1 0 0 0;
#X connect 2 0 0 0;
#X connect 3 0 0 0;
#X connect 5 0 4 0;
#X connect 5 0 12 0;
#X connect 6 0 0 0;
#X connect 7 0 5 0;
#X connect 12 0 11 0;
